<svg width="1600" height="1824" viewBox="0 0 1600 1824" fill="none" xmlns="http://www.w3.org/2000/svg">
<path opacity="0.45" d="M1783 1036.01C1281.06 991.399 1295.42 992.189 1075.78 1063.8C308.395 1313.92 133.633 2022.81 -143.028 1769.62M1782.32 1020.09C1379.64 989.459 1311 982.453 1184.49 1015C1153.13 1023.19 1118.6 1034.43 1075.03 1048.76C906.304 1104.18 767.282 1186.15 647.513 1272.03C230.591 1569.36 71.4299 1944.01 -143.579 1755.15M1781.65 1004.15C1378.18 978.607 1311.7 970.731 1183.81 1000.79C1152.21 1008.21 1117.66 1019.34 1074.28 1033.71C906.375 1089.34 768.967 1175.57 648.44 1262.64C234.849 1558.52 70.2825 1921.18 -144.286 1740.68M1780.97 988.231C1376.72 967.731 1312.53 959.285 1183.15 986.574C1151.3 993.281 1116.72 1004.24 1073.53 1018.69C906.446 1074.46 770.776 1165.55 649.51 1253.24C239.693 1549.46 69.2234 1898.33 -144.87 1726.21M1780.29 972.286C1375.27 956.9 1313.31 947.797 1182.48 972.362C1150.38 978.375 1115.85 989.135 1072.78 1003.64C906.515 1059.59 772.503 1155.25 650.525 1243.84C244.227 1539.28 68.1532 1875.47 -145.488 1711.74M1779.62 956.367C1373.85 946.043 1314.09 936.282 1181.81 958.125C1149.47 963.443 1114.84 974.071 1072.02 988.599C906.581 1044.62 774.221 1144.77 651.54 1234.44C248.674 1528.96 67.0719 1852.62 -146.095 1697.26M1778.94 940.423C1372.36 935.194 1314.9 924.936 1181.14 944.007C1148.57 948.631 1113.88 959.072 1071.27 973.65C906.66 1029.94 775.946 1134.47 652.566 1225.16C253.164 1518.76 65.9907 1829.88 -146.702 1683.01M1778.26 924.504C1370.91 924.364 1315.55 910.526 1180.48 929.651C1147.72 934.295 1112.93 943.833 1070.52 958.485C906.71 1014.95 777.661 1123.91 653.592 1215.6C257.688 1508.23 64.9094 1806.84 -147.331 1668.26M1777.58 908.561C1369.45 913.537 1316.49 902.097 1179.8 915.486C1146.76 918.72 1111.99 928.784 1069.78 943.487C906.811 1000.12 779.384 1113.54 654.618 1206.24C262.09 1497.89 63.8173 1783.97 -147.948 1653.83M1776.91 892.64C1368 902.659 1317.3 890.702 1179.13 901.275C1145.85 903.812 1111.05 913.736 1069.02 928.442C906.877 985.15 781.105 1103.13 655.633 1196.84C266.547 1487.48 62.758 1761.2 -148.555 1639.36M1776.23 876.697C1366.55 891.901 1318.1 879.306 1178.46 887.036C1144.94 888.904 1110.11 898.593 1068.27 913.396C906.951 970.372 782.825 1092.71 656.671 1187.44C271.004 1477.02 61.6659 1738.35 -149.173 1624.88M1775.55 860.776C1365.1 880.951 1318.95 867.93 1177.79 872.825C1144.04 873.996 1109.15 883.497 1067.52 898.376C907.025 955.571 784.536 1082.39 657.686 1178.04C275.439 1466.57 60.5845 1715.49 -149.791 1610.35M1774.88 844.833C1363.63 870.099 1319.75 856.559 1177.13 858.612C1143.13 859.112 1108.21 868.402 1066.76 883.33C907.092 940.651 786.253 1071.88 658.712 1168.69C279.886 1456.13 59.5144 1692.7 -150.398 1595.99M1774.2 828.913C1362.19 859.247 1320.54 845.188 1176.45 844.4C1142.23 844.205 1107.27 853.305 1066.02 868.284C907.163 925.778 787.973 1061.44 659.727 1159.29C284.321 1445.6 58.4332 1669.85 -151.016 1581.51M1773.52 812.97C1360.74 848.417 1321.34 833.841 1175.79 830.163C1141.36 829.222 1106.33 838.21 1065.27 853.263C907.247 910.903 789.679 1051 660.753 1149.84C288.745 1435.03 57.352 1646.92 -151.633 1567M1772.85 797.051C1359.29 837.562 1322.17 822.491 1175.11 815.95C1140.43 814.411 1105.38 823.138 1064.52 838.217C907.303 896.032 791.399 1040.56 661.779 1140.45C293.18 1424.45 56.1935 1624.09 -152.251 1552.52M1772.17 781.106C1357.82 826.71 1322.97 811.144 1174.45 801.737C1139.53 799.527 1104.44 808.041 1063.76 823.173C907.373 881.183 793.161 1030.11 662.772 1131.05C297.56 1413.88 55.1785 1601.22 -152.891 1538.06M1771.49 765.187C1356.37 815.856 1323.8 799.818 1173.78 787.524C1138.62 784.645 1103.49 793.019 1063.01 808.127C907.444 866.31 794.825 1019.68 663.82 1121.65C302.007 1403.25 54.1083 1578.37 -153.476 1523.57M1770.81 749.244C1354.97 804.998 1324.61 788.495 1173.09 773.315C1137.69 769.763 1102.51 777.854 1062.17 792.997C907.421 851.279 796.452 1009.11 664.758 1112.14C306.321 1392.52 52.9388 1555.41 -154.182 1508.98M1770.14 733.3C1353.46 794.152 1325.43 777.192 1172.44 759.074C1136.81 754.877 1101.6 762.755 1061.49 778.064C907.584 836.564 798.248 998.754 665.872 1102.94C310.822 1381.99 51.9569 1532.74 -154.712 1494.63M1769.46 717.381C1352.01 783.298 1326.24 765.893 1171.72 744.869C1135.85 739.999 1100.6 747.665 1060.73 763.018C907.625 821.693 799.924 988.295 666.865 1093.52C315.18 1371.39 50.8426 1509.9 -155.351 1480.22M1768.78 701.436C1350.56 772.491 1327.06 754.59 1171.12 730.649C1135.06 725.078 1099.73 732.561 1060.02 747.945C907.781 806.787 801.684 977.778 667.935 1084C319.626 1360.58 49.7945 1486.92 -155.925 1465.64M1768.11 685.613C1349.1 761.713 1327.83 743.415 1170.44 716.531C1134.12 710.319 1098.76 717.564 1059.26 733.044C907.807 791.918 803.375 967.341 668.939 1074.62C323.995 1349.91 48.7131 1464.1 -156.554 1451.23M1767.43 669.572C1347.65 750.763 1328.68 732.038 1169.76 702.225C1133.21 695.364 1097.82 702.372 1058.5 717.903C907.88 777.093 805.022 956.884 669.954 1065.22C328.375 1339.17 47.621 1441.25 -157.172 1436.72M1766.75 653.653C1346.2 739.909 1329.51 720.761 1169.09 687.988C1132.3 680.48 1096.87 687.3 1057.76 702.905C907.952 762.268 806.785 946.44 670.98 1055.87C332.755 1328.45 46.5618 1418.44 -157.779 1422.31M1766.08 637.734C1344.75 729.079 1330.32 709.508 1168.43 673.799C1131.4 665.62 1095.94 672.324 1057.01 687.859C908.021 747.371 808.488 935.929 672.006 1046.45C337.124 1317.67 45.4696 1395.57 -158.397 1407.8M1765.4 621.79C1343.28 718.202 1331.13 698.233 1167.75 659.562C1130.5 650.736 1094.99 657.108 1056.25 672.791C908.091 732.498 810.189 925.395 673.032 1037.02C341.493 1306.86 44.3993 1372.7 -159.014 1393.3M1764.72 605.847C1341.83 707.372 1331.95 686.979 1167.09 645.349C1129.59 635.878 1094.05 642.012 1055.5 657.746C908.16 717.601 811.893 914.909 674.047 1027.74C345.885 1296.17 43.318 1349.97 -159.621 1378.96M1764.04 589.854C1340.38 696.448 1332.76 675.68 1166.41 631.041C1128.72 620.845 1093.09 626.845 1054.75 642.652C908.285 702.673 813.593 904.327 675.062 1018.15C350.198 1285.15 42.2258 1326.97 -160.25 1364.35M1763.37 573.983C1338.92 685.668 1333.58 664.522 1165.75 616.899C1127.78 606.134 1092.15 611.822 1053.99 627.68C908.301 687.879 815.283 893.866 676.1 1008.83C354.556 1274.38 41.1556 1304.15 -160.857 1349.89M1762.69 558.064C1337.47 674.814 1334.38 653.297 1165.08 602.688C1126.88 591.274 1091.21 596.726 1053.26 612.632C908.372 673.03 816.985 883.354 677.103 999.427C358.903 1263.51 40.0303 1281.28 -161.486 1335.41M1762.01 542.119C1336.08 663.954 1335.15 642.073 1164.42 588.474C1126.03 576.406 1090.26 581.629 1052.43 597.668C908.374 658.237 818.604 872.903 678.074 990.106C363.184 1252.71 38.9822 1258.5 -162.159 1321.01M1761.34 526.201C1334.57 653.105 1335.95 630.87 1163.74 574.263C1125.07 561.554 1089.32 566.534 1051.75 582.567C908.512 643.285 820.36 862.289 679.167 980.625C367.586 1241.75 37.912 1235.5 -162.699 1306.47M1760.66 510.256C1333.11 642.255 1336.82 619.635 1163.08 560.024C1124.17 546.694 1088.37 551.462 1050.99 567.521C908.583 628.41 822.062 851.755 680.193 971.225C371.922 1230.82 36.8307 1212.72 -163.317 1291.98M1759.98 494.337C1331.67 631.471 1337.62 608.434 1162.4 545.813C1123.27 531.834 1087.42 536.367 1050.24 552.477C908.652 613.537 823.747 841.199 681.208 961.827C376.236 1219.8 35.7495 1189.87 -163.935 1277.52M1759.31 478.394C1330.21 620.571 1338.41 597.254 1161.74 531.598C1122.36 516.973 1086.48 521.272 1049.49 537.455C908.738 598.686 825.434 830.643 682.234 952.428C380.583 1208.95 34.6683 1167.12 -164.553 1263.04M1758.63 462.449C1328.74 609.719 1339.23 586.051 1161.07 517.387C1121.46 502.113 1085.54 506.175 1048.75 522.41C908.809 583.837 827.106 820.086 683.26 943.028C384.897 1198 33.5981 1144.17 -165.16 1248.56M1757.95 446.53C1327.29 598.864 1340.03 574.967 1160.39 503.174C1120.54 487.255 1084.6 491.079 1047.99 507.364C908.878 568.94 828.721 809.537 684.286 933.628C389.2 1187.03 32.5168 1121.32 -165.778 1234.1M1757.27 430.586C1325.84 588.012 1340.83 563.693 1159.73 488.937C1119.64 472.395 1083.66 475.982 1047.24 492.318C908.948 554.067 830.477 798.95 685.301 924.228C393.525 1176.03 31.4247 1098.45 -166.395 1219.59M1756.6 414.667C1324.38 577.16 1341.63 552.514 1159.05 474.726C1118.74 457.609 1082.7 460.889 1046.49 477.298C909.02 539.218 832.15 788.394 686.316 914.83C397.828 1165.03 30.3544 1075.6 -167.013 1205.13M1755.92 398.724C1322.93 566.306 1342.43 541.408 1158.39 460.512C1117.83 442.701 1081.83 445.784 1045.73 462.253C909.089 524.346 833.818 777.768 687.353 905.428C402.108 1153.97 29.2731 1052.75 -167.62 1190.67M1755.24 382.803C1321.44 555.41 1343.22 530.159 1157.76 446.319C1116.97 427.859 1080.86 430.716 1045.04 447.225C909.159 509.473 835.489 767.165 688.368 895.957C406.411 1142.9 28.192 1029.83 -168.238 1176.12M1754.57 366.86C1320.03 544.623 1344.02 519.003 1157 432.069C1115.95 412.988 1079.81 415.632 1044.18 432.191C909.229 494.6 837.102 756.569 689.317 886.637C410.637 1132.03 27.0446 1007.06 -168.922 1161.74M1753.89 350.939C1318.57 533.771 1344.8 507.851 1156.39 417.849C1115.12 398.145 1078.94 400.527 1043.5 417.138C909.299 479.727 838.827 745.935 690.354 877.238C414.917 1120.87 25.9522 984.208 -169.54 1147.26M1753.21 334.997C1317.12 522.917 1345.59 496.697 1155.72 403.636C1114.2 383.287 1077.97 385.434 1042.73 402.096C909.369 464.854 840.54 735.304 691.424 867.806C419.264 1109.8 24.9372 961.351 -170.103 1132.76M1752.54 319.078C1315.67 512.063 1346.39 485.542 1155.04 389.425C1113.29 368.452 1077.03 370.339 1041.98 387.05C909.442 450.053 842.134 724.613 692.461 858.407C423.545 1098.71 23.8892 938.5 -170.698 1118.3M1751.86 303.133C1314.2 501.211 1347.18 474.39 1154.37 375.093C1112.37 353.353 1076.08 355.026 1041.22 371.908C909.505 435.011 843.79 714.011 693.476 848.887C427.815 1087.48 22.7968 915.506 -171.316 1103.7M1751.18 287.214C1312.78 490.427 1347.97 463.26 1153.7 360.975C1111.47 338.758 1075.15 340.146 1040.48 356.863C909.58 420.257 845.444 703.363 694.48 839.609C432.063 1076.52 21.6826 892.78 -171.956 1089.36M1750.5 271.269C1311.3 479.528 1348.74 452.108 1153.04 346.762C1110.52 323.903 1074.2 325.051 1039.73 341.937C909.579 405.394 847.096 692.689 695.517 830.209C436.343 1065.38 20.6234 869.976 -172.563 1074.88M1749.83 255.35C1309.86 468.674 1349.53 440.98 1152.37 332.55C1109.65 309.064 1073.25 309.955 1038.94 326.92C909.736 390.534 848.735 682.017 696.554 820.809C440.613 1054.24 19.5532 847.076 -173.159 1060.47M1749.15 239.407C1308.39 457.822 1350.33 429.848 1151.71 318.337C1108.75 294.299 1072.3 294.86 1038.24 311.845C909.746 375.573 850.372 671.322 697.581 811.407C444.883 1043.11 18.483 824.227 -173.765 1045.93M1748.48 223.582C1306.94 447.064 1351.09 418.818 1151.03 304.195C1107.83 279.465 1071.37 279.858 1037.53 296.915C909.866 360.885 852.07 660.717 698.662 802.097C449.186 1032.04 17.4569 801.465 -174.328 1031.54M1747.8 207.544C1305.49 436.116 1351.87 407.668 1150.35 289.889C1106.92 264.533 1070.48 264.684 1036.73 281.78C909.918 345.919 853.645 649.907 699.655 792.605C453.389 1020.77 16.3426 778.523 -174.979 1016.97M1747.12 191.623C1304.03 425.263 1352.65 396.466 1149.69 275.602C1106 249.603 1069.48 249.522 1035.98 266.734C910.016 331.042 855.267 639.189 700.681 783.204C457.648 1009.59 15.2834 755.672 -175.575 1002.5M1746.44 175.704C1302.58 414.457 1353.43 385.362 1149.02 261.487C1105.1 234.863 1068.53 234.451 1035.23 251.736C910.088 316.193 856.889 628.447 701.718 773.804C461.885 998.407 14.2023 732.798 -176.193 987.926M1745.76 159.735C1301.13 403.579 1354.2 374.234 1148.35 247.25C1104.21 220.003 1067.58 219.405 1034.47 236.668C910.157 301.32 858.509 617.681 702.755 764.45C466.143 987.249 13.1321 709.996 -176.788 973.608M1745.09 143.816C1299.66 392.727 1354.97 363.108 1147.68 233.013C1103.27 205.146 1066.64 204.308 1033.72 221.622C910.26 286.515 860.128 606.917 703.715 755.01C470.303 976.077 11.9957 687.104 -177.461 959.083M1744.41 127.826C1298.14 381.834 1355.73 351.91 1147.01 218.753C1102.37 190.36 1065.69 189.213 1032.95 206.602C910.283 271.574 861.726 596.274 704.719 745.612C474.506 964.78 10.9033 664.256 -178.09 944.601M1743.73 111.953C1296.76 371.021 1356.51 340.878 1146.34 204.659C1101.45 175.55 1064.81 174.182 1032.23 191.627C910.425 256.694 863.32 585.245 705.767 736.21C478.732 953.553 9.84427 641.402 -178.697 930.14M1743.06 96.0099C1295.31 360.166 1357.28 329.774 1145.68 190.303C1100.53 160.546 1063.81 158.949 1031.47 176.438C910.436 241.779 864.982 574.452 706.782 726.738C482.957 942.23 8.70786 618.486 -179.26 915.578M1742.38 80.0891C1293.9 349.38 1357.88 319.363 1145 176.09C1099.59 145.859 1062.85 143.855 1030.71 161.418C910.506 226.906 866.514 563.647 707.797 717.268C487.161 930.934 7.72587 595.553 -179.889 901.049M1741.7 64.1463C1292.4 338.484 1358.67 308.137 1144.34 161.925C1098.68 130.975 1061.91 128.853 1029.96 146.444C910.579 212.105 868.135 552.882 708.823 708.012C491.442 919.797 6.60057 572.853 -180.518 886.711M1741.03 48.2273C1290.95 327.63 1359.47 296.888 1143.64 147.716C1097.74 116.192 1060.94 113.714 1029.18 131.402C910.649 197.232 869.68 542.028 709.86 698.708C495.568 908.653 5.51929 550.076 -181.124 872.323M1740.35 32.2826C1289.49 316.78 1360.26 285.637 1143.03 133.495C1096.86 101.328 1060.03 98.6628 1028.47 116.352C910.734 182.381 871.295 531.142 710.875 689.212C499.749 897.286 4.43812 527.129 -181.753 857.771M1739.67 16.3636C1288.04 305.925 1361.07 274.338 1142.33 119.288C1095.96 86.4703 1059.14 83.5601 1027.72 101.33C910.805 167.508 872.681 519.922 711.89 679.812C503.799 885.551 3.35696 504.279 -182.382 843.289M1738.99 0.418945C1286.59 295.071 1361.87 263.158 1141.67 105.049C921.463 -53.059 917.731 466.078 712.927 670.389C508.123 874.697 2.26463 481.431 -183 828.804" stroke="url(#paint0_linear_60204_2704)" stroke-opacity="0.5" stroke-miterlimit="10"/>
<defs>
<linearGradient id="paint0_linear_60204_2704" x1="1724.72" y1="216.955" x2="13.7134" y2="207.176" gradientUnits="userSpaceOnUse">
<stop stop-color="#F94F40" stop-opacity="0"/>
<stop offset="0.291877" stop-color="#F94F40"/>
<stop offset="1" stop-color="#F94F40" stop-opacity="0"/>
</linearGradient>
</defs>
</svg>
